<svg height="48" viewBox="0 0 480 480" width="48" xmlns="http://www.w3.org/2000/svg"> 
<path fill="#0152CC" opacity="1.000000" stroke="none" d="M 393.507 243.016 C 392.02 251.927 391.027 260.694 388.933 269.194 C 385.649 282.525 380.318 295.101 373.604 307.176 C 365.143 322.392 354.1 335.447 341.36 347.156 C 332.551 355.251 322.867 362.304 312.099 367.603 C 303.723 371.725 295.18 375.712 286.336 378.644 C 277.395 381.606 268.053 383.503 258.77 385.267 C 253.39 386.29 247.787 386.281 242.276 386.465 C 236.683 386.654 231.036 386.95 225.491 386.404 C 217.325 385.598 209.165 384.401 201.118 382.804 C 186.615 379.93 172.892 374.642 160.107 367.366 C 152.067 362.79 144.465 357.356 137.088 351.759 C 131.758 347.716 126.963 342.931 122.213 338.197 C 114.098 330.106 107.365 320.918 101.382 311.178 C 94.643 300.213 89.26 288.603 85.841 276.241 C 83.459 267.634 81.387 258.834 80.384 249.986 C 79.25 239.995 78.944 229.836 79.27 219.781 C 79.516 212.22 81.039 204.653 82.507 197.187 C 85.236 183.325 90.233 170.192 96.845 157.711 C 101.952 148.07 107.896 138.921 115.174 130.718 C 119.562 125.775 123.91 120.754 128.719 116.231 C 137.903 107.596 147.912 99.937 159.201 94.178 C 166.723 90.339 174.308 86.444 182.249 83.643 C 190.787 80.631 199.725 78.666 208.576 76.607 C 221.552 73.588 234.826 73.891 247.978 74.494 C 258.985 75 269.822 77.28 280.475 80.349 C 291.122 83.417 301.474 87.258 311.019 92.745 C 319.52 97.63 327.689 103.191 335.504 109.105 C 341.35 113.528 346.632 118.762 351.751 124.036 C 360.162 132.697 367.092 142.505 373.171 152.919 C 379.108 163.089 383.859 173.792 387.01 185.081 C 389.288 193.247 391.019 201.613 392.291 209.994 C 393.395 217.275 393.654 224.696 394.004 232.068 C 394.175 235.615 393.694 239.192 393.507 243.016 M 287.193 325.744 C 288.994 328.859 290.893 331.92 292.554 335.105 C 293.429 336.782 294.465 337.42 296.416 337.393 C 304.866 337.276 313.322 337.347 321.776 337.336 C 322.652 337.336 323.527 337.245 324.838 337.172 C 306.455 305.745 288.282 274.673 270.194 243.748 C 275.238 241.788 280.115 240.234 284.689 238.052 C 299.145 231.153 310.048 220.809 315.206 205.352 C 319.172 193.469 319.58 181.233 317.557 168.996 C 314.298 149.292 303.134 135.687 284.423 128.308 C 272.876 123.755 260.711 122.259 248.429 121.985 C 234.594 121.676 220.746 121.869 206.904 121.856 C 206.106 121.852 205.306 121.951 204.497 122.003 C 204.497 129.324 204.497 136.405 204.497 143.811 C 205.608 143.811 206.605 143.811 207.601 143.811 C 217.448 143.811 227.295 143.776 237.144 143.818 C 247.007 143.862 256.827 144.4 266.336 147.324 C 276.942 150.587 285.432 156.273 289.03 167.376 C 291.14 173.891 291.463 180.604 290.91 187.346 C 289.82 200.661 283.998 211.023 271.656 217.292 C 262.858 221.76 253.413 223.502 243.706 223.732 C 231.636 224.017 219.555 223.848 207.476 223.873 C 206.5 223.874 205.525 223.873 204.552 223.873 C 204.552 231.626 204.552 238.957 204.552 246.478 C 216.043 246.478 227.361 246.541 238.676 246.422 C 240.812 246.399 241.936 247.034 242.993 248.881 C 257.614 274.41 272.323 299.89 287.193 325.744 M 187.464 237.343 C 187.574 199.991 187.71 162.64 187.761 125.287 C 187.768 120.038 187.413 114.784 187.066 109.544 C 187.008 108.668 186.136 107.844 185.639 106.995 C 185.094 107.893 184.152 108.754 184.07 109.688 C 183.709 113.817 183.433 117.969 183.419 122.112 C 183.224 180.124 183.061 238.134 182.951 296.144 C 182.942 300.653 183.335 305.167 183.692 309.665 C 183.744 310.337 184.639 310.941 185.144 311.577 C 185.581 310.983 186.316 310.426 186.401 309.786 C 186.731 307.232 187.017 304.653 187.039 302.081 C 187.215 280.686 187.327 259.292 187.464 237.343 M 160.686 293.799 C 160.677 296.75 160.626 299.703 160.669 302.653 C 160.821 312.794 160.965 322.932 161.241 333.07 C 161.268 334.034 162.196 334.974 162.708 335.927 C 163.248 335.015 164.186 334.135 164.26 333.187 C 164.635 328.412 164.967 323.617 164.985 318.831 C 165.189 262.202 165.351 205.575 165.465 148.947 C 165.476 143.977 165.141 138.997 164.781 134.034 C 164.712 133.106 163.751 132.244 163.202 131.35 C 162.698 132.29 161.834 133.204 161.758 134.18 C 161.412 138.496 161.134 142.83 161.118 147.158 C 160.944 195.854 160.823 244.55 160.686 293.799 M 190.002 194.725 C 189.841 205.779 189.605 216.831 189.538 227.888 C 189.453 241.993 189.436 256.103 189.52 270.209 C 189.625 288.27 189.843 306.331 190.073 324.39 C 190.088 325.681 190.597 326.966 190.874 328.253 C 191.206 328.246 191.538 328.238 191.87 328.231 C 192.172 327.527 192.658 326.846 192.741 326.118 C 193.024 323.651 193.313 321.172 193.334 318.696 C 193.551 293.534 193.804 268.372 193.869 243.211 C 193.962 207.066 193.918 170.921 193.889 134.774 C 193.885 132.021 193.616 129.258 193.284 126.523 C 193.191 125.759 192.427 125.075 191.97 124.354 C 191.522 125.049 190.751 125.715 190.685 126.444 C 190.37 129.923 190.099 133.42 190.085 136.912 C 190.013 155.998 190.022 175.085 190.002 194.725 M 166.611 346.382 C 166.798 348.438 166.985 350.497 167.17 352.554 C 167.558 352.583 167.943 352.613 168.331 352.642 C 168.665 351.97 169.216 351.322 169.301 350.619 C 169.601 348.155 169.897 345.674 169.918 343.198 C 170.136 317.943 170.384 292.688 170.456 267.433 C 170.555 233.315 170.532 199.195 170.496 165.076 C 170.492 160.386 170.196 155.692 169.872 151.012 C 169.817 150.219 168.925 149.485 168.419 148.724 C 168.015 149.459 167.342 150.167 167.257 150.936 C 166.952 153.769 166.698 156.621 166.677 159.467 C 166.459 189.609 166.15 219.753 166.145 249.893 C 166.138 281.879 166.436 313.866 166.611 346.382 Z" style=""/>
  <path fill="#FEFEFF" opacity="1.000000" stroke="none" d="M 287.102 325.564 C 272.323 299.89 257.614 274.41 242.993 248.881 C 241.936 247.034 240.812 246.399 238.676 246.422 C 227.361 246.541 216.043 246.478 204.552 246.478 C 204.552 238.957 204.552 231.626 204.552 223.873 C 205.525 223.873 206.5 223.874 207.476 223.873 C 219.555 223.848 231.636 224.017 243.706 223.732 C 253.413 223.502 262.858 221.76 271.656 217.292 C 283.998 211.023 289.82 200.661 290.91 187.346 C 291.463 180.604 291.14 173.891 289.03 167.376 C 285.432 156.273 276.942 150.587 266.336 147.324 C 256.827 144.4 247.007 143.862 237.144 143.818 C 227.295 143.776 217.448 143.811 207.601 143.811 C 206.605 143.811 205.608 143.811 204.497 143.811 C 204.497 136.405 204.497 129.324 204.497 122.003 C 205.306 121.951 206.106 121.852 206.904 121.856 C 220.746 121.869 234.594 121.676 248.429 121.985 C 260.711 122.259 272.876 123.755 284.423 128.308 C 303.134 135.687 314.298 149.292 317.557 168.996 C 319.58 181.233 319.172 193.469 315.206 205.352 C 310.048 220.809 299.145 231.153 284.689 238.052 C 280.115 240.234 275.238 241.788 270.194 243.748 C 288.282 274.673 306.455 305.745 324.838 337.172 C 323.527 337.245 322.652 337.336 321.776 337.336 C 313.322 337.347 304.866 337.276 296.416 337.393 C 294.465 337.42 293.429 336.782 292.554 335.105 C 290.893 331.92 288.994 328.859 287.102 325.564 Z" style=""/>
  <path fill="#F2F6FC" opacity="1.000000" stroke="none" d="M 187.463 237.62 C 187.327 259.292 187.215 280.686 187.039 302.081 C 187.017 304.653 186.731 307.232 186.401 309.786 C 186.316 310.426 185.581 310.983 185.144 311.577 C 184.639 310.941 183.744 310.337 183.692 309.665 C 183.335 305.167 182.942 300.653 182.951 296.144 C 183.061 238.134 183.224 180.124 183.419 122.112 C 183.433 117.969 183.709 113.817 184.07 109.688 C 184.152 108.754 185.094 107.893 185.639 106.995 C 186.136 107.844 187.008 108.668 187.066 109.544 C 187.413 114.784 187.768 120.038 187.761 125.287 C 187.71 162.64 187.574 199.991 187.463 237.62 Z" style=""/>
  <path fill="#F2F6FC" opacity="1.000000" stroke="none" d="M 160.687 293.522 C 160.823 244.55 160.944 195.854 161.118 147.158 C 161.134 142.83 161.412 138.496 161.758 134.18 C 161.834 133.204 162.698 132.29 163.202 131.35 C 163.751 132.244 164.712 133.106 164.781 134.034 C 165.141 138.997 165.476 143.977 165.465 148.947 C 165.351 205.575 165.189 262.202 164.985 318.831 C 164.967 323.617 164.635 328.412 164.26 333.187 C 164.186 334.135 163.248 335.015 162.708 335.927 C 162.196 334.974 161.268 334.034 161.241 333.07 C 160.965 322.932 160.821 312.794 160.669 302.653 C 160.626 299.703 160.677 296.75 160.687 293.522 Z" style=""/>
  <path fill="#003D98" opacity="1.000000" stroke="none" d="M 190.002 194.448 C 190.022 175.085 190.013 155.998 190.085 136.912 C 190.099 133.42 190.37 129.923 190.685 126.444 C 190.751 125.715 191.522 125.049 191.97 124.354 C 192.427 125.075 193.191 125.759 193.284 126.523 C 193.616 129.258 193.885 132.021 193.889 134.774 C 193.918 170.921 193.962 207.066 193.869 243.211 C 193.804 268.372 193.551 293.534 193.334 318.696 C 193.313 321.172 193.024 323.651 192.741 326.118 C 192.658 326.846 192.172 327.527 191.87 328.231 C 191.538 328.238 191.206 328.246 190.874 328.253 C 190.597 326.966 190.088 325.681 190.073 324.39 C 189.843 306.331 189.625 288.27 189.52 270.209 C 189.436 256.103 189.453 241.993 189.538 227.888 C 189.605 216.831 189.841 205.779 190.002 194.448 Z" style=""/>
  <path fill="#003D98" opacity="1.000000" stroke="none" d="M 166.606 346.117 C 166.436 313.866 166.138 281.879 166.145 249.893 C 166.15 219.753 166.459 189.609 166.677 159.467 C 166.698 156.621 166.952 153.769 167.257 150.936 C 167.342 150.167 168.015 149.459 168.419 148.724 C 168.925 149.485 169.817 150.219 169.872 151.012 C 170.196 155.692 170.492 160.386 170.496 165.076 C 170.532 199.195 170.555 233.315 170.456 267.433 C 170.384 292.688 170.136 317.943 169.918 343.198 C 169.897 345.674 169.601 348.155 169.301 350.619 C 169.216 351.322 168.665 351.97 168.331 352.642 C 167.943 352.613 167.558 352.583 167.17 352.554 C 166.985 350.497 166.798 348.438 166.606 346.117 Z" style=""/>
</svg>